<mxfile host="app.diagrams.net" modified="2024-02-05T16:21:33.223Z" agent="Mozilla/5.0 (Windows NT 10.0; Win64; x64) AppleWebKit/537.36 (KHTML, like Gecko) Chrome/121.0.0.0 Safari/537.36" version="23.1.1" etag="BdZpy9ykIHJ_OYWbapzY" type="github">
  <diagram name="Сторінка-1" id="Cl1b2jOkEZIFPvesc7W6">
    <mxGraphModel>
      <root>
        <mxCell id="0" />
        <mxCell id="1" parent="0" />
      </root>
    </mxGraphModel>
  </diagram>
</mxfile>
